<?xml version="1.0" encoding="UTF-8" standalone="no"?>
<!DOCTYPE svg PUBLIC "-//W3C//DTD SVG 1.1//EN" "http://www.w3.org/Graphics/SVG/1.1/DTD/svg11.dtd">
<svg width="100%" height="100%" viewBox="0 0 1024 1024" version="1.1" xmlns="http://www.w3.org/2000/svg" xmlns:xlink="http://www.w3.org/1999/xlink" xml:space="preserve" xmlns:serif="http://www.serif.com/" style="fill-rule:evenodd;clip-rule:evenodd;stroke-linejoin:round;stroke-miterlimit:2;">
    <g transform="matrix(0.1,0,0,-0.1,0,1024)">
        <g transform="matrix(10,0,0,-10,0,10240)">
            <path d="M0,200L0,824C-0,877.043 21.071,927.914 58.579,965.421C96.086,1002.93 146.957,1024 200,1024L824,1024C877.043,1024 927.914,1002.93 965.421,965.421C1002.93,927.914 1024,877.043 1024,824L1024,200C1024,146.957 1002.93,96.086 965.421,58.579C927.914,21.071 877.043,-0 824,0L200,0C146.957,-0 96.086,21.071 58.579,58.579C21.071,96.086 -0,146.957 0,200Z" style="fill:rgb(13,242,121);fill-rule:nonzero;"/>
        </g>
        <g transform="matrix(10,0,0,-10,0,10240)">
            <path d="M627.7,221.5C634,223.4 642,230.3 645,236.4C646.2,238.9 647.3,243.8 647.7,247.7C648.6,259.8 642.7,270.6 631.9,276.5C627.5,278.8 625,279.5 618.3,279.8L610,280.3L610,384.2L614.3,385.8C624.3,389.6 649,402.7 659.9,410C698.6,435.9 728.2,470.1 748.6,512.4C766.3,549.4 772.9,580.2 771.7,620.9C771,646.6 768.2,663 760.9,686C739.1,753.9 685.6,811.9 618,840.8C583.2,855.7 550.7,862.3 512,862.3C482.5,862.4 460,859.2 434.3,851.4C337.8,822.2 267,742.7 252.4,647.5C250.4,634 250.1,600 251.9,585.5C262.3,503.8 316.1,430 392,393.3C400.5,389.2 408.6,385.3 409.9,384.7L412.2,383.5L412.4,331.7L412.5,280L406.4,280C392.9,280 383.7,274.7 378,263.6C375,257.7 374.6,255.9 374.6,249.6C374.6,240.6 378,233 384.7,227C393,219.8 386,220.1 510.6,220.1C607.7,220 623.3,220.2 627.7,221.5Z" style="fill-rule:nonzero;"/>
        </g>
        <g transform="matrix(10,0,0,-10,0,10240)">
            <path d="M428,252.8C426.5,253.3 426.8,255 428.3,255C431.3,255 437.8,261 440.4,266.1L443,271.4L443,398.7L440.8,402C438.9,404.7 435.9,406.5 425.5,411C386.5,427.9 358.2,447.8 335.4,474.3C307.3,507 289.3,545 282.8,585.5C280.9,597.6 281.2,632 283.3,645.4C291.1,694.6 317.8,741.7 356.9,775.2C390.1,803.6 431.3,822.6 475.1,829.7C490.3,832.2 531.3,832.1 547,829.7C608.2,820 662.2,788.1 698.2,740.3C719.9,711.4 734,678.4 739.7,643C742.2,627.2 741.9,597.2 739.1,581.5C731.3,537.8 710.9,498.5 678.6,465.2C656.3,442.1 624.3,421.2 593.7,409.5C586.2,406.6 583.5,405.1 581.7,402.6L579.5,399.5L579.2,336.5C579,291 579.2,272.3 580.1,269.3C581.5,264.2 586.8,257.7 591,256C594.1,254.7 595,253.1 592.8,252.9C589.8,252.6 428.9,252.5 428,252.8Z" style="fill:rgb(13,242,121);fill-rule:nonzero;"/>
        </g>
        <g transform="matrix(10,0,0,-10,0,10240)">
            <path d="M512.4,365.5C516.6,370 531.7,392.4 536.2,400.5C540.4,408.2 540.5,408.8 540.5,417.5C540.5,425.3 540.1,427.2 537.7,432.2C527.8,452.4 499.6,456.6 484.6,439.9C480,434.9 476.4,427.3 475.5,420.8C474,410.8 478.3,400.9 492.8,380.5C506.1,361.8 507.8,360.5 512.4,365.5Z" style="fill-rule:nonzero;"/>
        </g>
        <g transform="matrix(10,0,0,-10,0,10240)">
            <path d="M445,438.5C449,440.6 451.4,445.3 450.7,450.2C450.4,452.3 449.6,454.7 448.9,455.6C448.3,456.4 441.8,460 434.6,463.5C398.4,481.3 376.8,501.6 355,538.2C350.9,545.2 347,547.5 340.9,546.7C335.8,546 332.5,542.7 331.5,537.3C330.7,532.6 333.6,526.6 345,509.5C352.7,498.1 357.2,492.8 369,480.9C385.7,464.2 399.1,454.5 421,443.6C435.1,436.5 439.4,435.6 445,438.5Z" style="fill-rule:nonzero;"/>
        </g>
        <g transform="matrix(10,0,0,-10,0,10240)">
            <path d="M516.5,481.6C518.2,482.3 534.4,504.5 540.8,515.1C548.6,527.9 550.2,539 546,550.3C536,577 495.7,578.5 483.1,552.7C475.5,537.1 478.4,527 498.2,500.6C505.8,490.5 513.7,481 514.6,481C514.7,481 515.6,481.3 516.5,481.6Z" style="fill-rule:nonzero;"/>
        </g>
        <g transform="matrix(10,0,0,-10,0,10240)">
            <path d="M393.5,572.4C398.4,573.9 415.6,580.1 431.7,586.1C479.3,603.9 487.8,606 513.9,606C541.6,606 551.2,603.5 605,582.7C637,570.2 641.8,569 658.5,569C670.1,569 672.1,569.3 676,571.2C682,574.3 684.8,579.5 683.1,584.9C682.5,586.9 680.9,589.7 679.5,591C677.1,593.3 675.9,593.5 661.7,594.1C645.1,594.8 648.7,593.8 619,605.3C588.6,617 572.9,622.9 566.5,624.8C533.1,634.8 501.5,635.3 468,626.4C462.8,625 445.9,619.1 430.5,613.3C379.2,594 382,594.8 363,594.1C353.5,593.7 345.6,592.9 344.4,592.2C343.2,591.6 341.5,589.4 340.5,587.4C337.5,580.9 340.2,574.2 347.3,570.9C351.1,569.1 353.3,569 368,569.3C382.5,569.6 385.6,570 393.5,572.4Z" style="fill-rule:nonzero;"/>
        </g>
        <g transform="matrix(10,0,0,-10,0,10240)">
            <path d="M381.5,625.5C386.5,626.9 397.9,631.1 407,634.6C455.4,653.8 471.4,658.4 498.5,661C529.4,664.1 560.2,658.7 597,643.8C651.2,621.9 652.4,621.6 676.2,622.2C689.9,622.6 693.8,623.1 700.8,625.2C705.4,626.6 709.6,628.2 710.2,628.8C711.6,630.2 709.9,643.3 706.4,657.1C698.8,687.3 680.3,718.6 655.9,742.7C631.7,766.6 607.3,781.7 576.1,792C550.8,800.4 529.6,803.6 505.5,802.7C461.1,800.9 419.6,785.7 383.5,758.1C356.8,737.7 332.6,704.8 320.5,672.5C316.4,661.6 312.6,645.8 311.5,635.6C310.7,628 310.4,628.2 323,625C340.1,620.6 365.5,620.9 381.5,625.5Z" style="fill-rule:nonzero;"/>
        </g>
        <path d="M6584,3689C6509,3652 6517,3527 6597,3494C6645,3474 6683,3484 6721,3527C6748,3559 6752,3568 6747,3604C6737,3680 6655,3723 6584,3689Z" style="fill-rule:nonzero;"/>
        <path d="M3851,3525C3694,3475 3661,3261 3797,3166C3929,3074 4110,3169 4110,3330C4110,3466 3978,3566 3851,3525Z" style="fill-rule:nonzero;"/>
        <path d="M5937,3460C5792,3423 5700,3306 5700,3157C5700,3065 5730,3000 5801,2936C5865,2879 5930,2857 6018,2862C6272,2876 6401,3173 6235,3358C6158,3443 6037,3485 5937,3460Z" style="fill-rule:nonzero;"/>
        <path d="M5122,3180C5033,3125 5026,3000 5110,2940C5172,2896 5270,2917 5311,2983C5339,3028 5333,3110 5299,3146C5247,3202 5180,3215 5122,3180Z" style="fill-rule:nonzero;"/>
        <path d="M4420,3065C4319,3033 4256,2944 4257,2835C4258,2761 4279,2710 4332,2659C4373,2619 4443,2590 4496,2590C4586,2590 4689,2660 4725,2746C4776,2869 4700,3026 4571,3064C4506,3083 4480,3083 4420,3065Z" style="fill-rule:nonzero;"/>
        <path d="M5124,2606C5096,2578 5090,2565 5090,2528C5090,2478 5108,2446 5150,2425C5198,2400 5228,2406 5271,2449C5300,2478 5310,2496 5310,2519C5310,2587 5257,2640 5189,2640C5167,2640 5148,2630 5124,2606Z" style="fill-rule:nonzero;"/>
    </g>
</svg>
